<svg width="847" height="880" viewBox="0 0 847 880" fill="none" xmlns="http://www.w3.org/2000/svg">
<path d="M26.8831 8.98196C30.448 8.98196 33.867 10.4013 36.3877 12.9279C38.9085 15.4544 40.3247 18.8811 40.3247 22.4541C40.3247 31.4356 26.8831 46.5918 26.8831 46.5918C26.8831 46.5918 13.4415 31.4356 13.4415 22.4541C13.4415 18.8811 14.8576 15.4544 17.3784 12.9279C19.8992 10.4013 23.3181 8.98196 26.8831 8.98196Z" fill="url(#paint0_linear_914_132)"/>
<rect width="60.8832" height="21.9465" rx="10.9733" transform="matrix(-0.559134 0.829077 -0.837702 -0.546128 80.1104 16.5229)" fill="url(#paint1_linear_914_132)"/>
<rect width="60.8832" height="21.9465" rx="10.9733" transform="matrix(-0.559173 0.829051 -0.837677 -0.546166 112.41 16.4536)" fill="url(#paint2_linear_914_132)"/>
<path d="M432.152 800.903C431.583 784.502 435.28 769.294 432.292 753.956C431.583 750.252 431.015 746.419 429.309 742.98C424.614 733.062 417.226 728.83 405.428 729.623C395.476 730.282 386.806 734.25 378.276 738.747C359.085 748.795 342.453 762.416 324.683 774.455C303.791 788.605 282.61 801.957 257.023 808.041C224.897 815.713 195.614 810.686 170.312 790.187C153.396 776.436 143.304 758.717 139.178 738.483C129.8 692.858 142.735 652.658 176.283 618.403C192.771 601.477 212.954 589.179 233.712 577.41C244.512 571.325 255.317 565.111 265.125 557.574C267.115 555.987 269.245 554.53 271.096 552.942C288.581 537.34 288.865 523.319 271.949 507.187C266.262 501.767 260.007 496.741 253.896 491.585C246.647 485.5 239.823 479.152 234.565 471.48C221.345 452.044 225.75 431.939 246.503 419.112C264.411 408.006 284.171 406.683 304.5 410.387C318.572 412.897 331.223 418.847 343.59 425.46C359.653 434.19 375.148 443.973 392.777 450.057C404.007 453.896 415.376 456.671 427.458 457.065C453.613 457.993 473.517 447.811 487.875 427.711C493.272 420.17 497.822 412.238 502.8 404.432C510.473 392.533 520.709 383.539 534.074 377.06C553.544 367.537 571.174 370.711 588.09 382.615C593.064 386.184 597.897 390.018 602.731 393.986C620.356 408.535 640.684 412.368 663.143 407.607C671.105 405.89 678.777 403.244 686.739 401.393C710.195 395.707 732.654 396.501 752.698 410.916C770.038 423.344 779.561 440.01 783.542 459.975C786.815 476.506 783.403 492.378 780.275 508.38C778.853 515.123 777.292 521.867 776.438 528.875C774.448 543.818 779.846 556.251 790.651 566.698C798.897 574.764 807.422 582.566 815.813 590.367C822.209 596.321 827.896 602.666 832.869 609.543C848.932 631.76 851.631 655.563 839.265 679.636C821.071 714.944 790.935 737.555 749.715 745.491C729.102 749.458 708.205 746.948 688.161 739.671C673.664 734.385 659.446 728.166 644.097 724.862C619.219 719.705 604.009 726.713 593.917 748.4C588.514 759.905 585.671 772.074 581.834 784.108C572.88 811.745 559.944 837.27 537.197 857.5C525.967 867.422 513.177 874.959 497.682 877.999C476.93 881.967 460.298 875.488 447.502 860.28C436.697 847.452 433.574 832.109 432.437 816.372C431.723 810.821 432.152 805.266 432.152 800.903Z" fill="#41BCFF"/>
<mask id="mask0_914_132" style="mask-type:luminance" maskUnits="userSpaceOnUse" x="84" y="96" width="662" height="502">
<path d="M84.4487 96H745.973V597.37H84.4487V96Z" fill="white"/>
</mask>
<g mask="url(#mask0_914_132)">
<mask id="mask1_914_132" style="mask-type:luminance" maskUnits="userSpaceOnUse" x="30" y="-13" width="758" height="674">
<path d="M30.4829 290.831L525.584 -12.8857L787.474 356.607L292.373 660.325L30.4829 290.831Z" fill="white"/>
</mask>
<g mask="url(#mask1_914_132)">
<mask id="mask2_914_132" style="mask-type:luminance" maskUnits="userSpaceOnUse" x="30" y="-13" width="758" height="674">
<path d="M30.4829 290.831L525.584 -12.8857L787.474 356.607L292.373 660.325L30.4829 290.831Z" fill="white"/>
</mask>
<g mask="url(#mask2_914_132)">
<path d="M176.493 201.646C188.894 193.654 214.221 185.871 240.855 181.296C246.522 180.275 252.125 179.165 257.792 178.534C281.452 176.042 299.691 164.723 315.125 148.665C323.506 139.903 330.894 130.329 339.689 121.961C350.165 112.043 361.858 103.838 376.42 99.6846C397.302 93.8556 417.815 95.7491 437.365 103.922C469.98 117.394 493.472 139.564 509.754 169.002C518.23 184.488 525.059 200.593 533.819 215.898C545.073 235.492 562.419 246.051 585.795 249.035C604.053 251.276 622.461 250.975 640.794 251.75C657.291 252.483 673.629 253.968 689.233 259.519C721.28 271.01 741.404 291.759 744.831 324.427C746.607 341.051 741.249 356.227 731.811 370.163C720.232 387.349 704.109 400.083 685.487 410.47C647.374 431.781 605.799 439.188 561.98 439.309C550.496 439.378 538.943 439.74 527.549 441.304C494.16 445.755 470.903 462.736 456.885 490.985C450.54 503.794 446.639 517.309 442.254 530.726C437.739 544.741 432.711 558.428 424.215 570.745C417.082 581.071 407.963 589.378 395.521 593.778C379.498 599.597 363.839 598.089 348.823 590.237C330.216 580.454 317.784 565.459 308.386 548.083C299.147 531.13 293.52 512.997 288.506 494.745C284.056 478.469 279.642 462.049 271.969 446.716C267.454 437.596 261.772 429.191 254.539 421.733C242.801 409.676 227.646 403.587 210.38 402.163C199.121 401.179 187.992 401.545 176.633 401.791C165.947 402.014 155.237 401.991 144.626 400.357C111.776 395.173 91.9266 376.971 86.3045 346.295C81.1463 318.05 88.2999 292.07 104.164 267.993C120.062 243.763 141.114 223.867 176.493 201.646Z" fill="#01A4FD"/>
</g>
</g>
</g>
<mask id="mask3_914_132" style="mask-type:luminance" maskUnits="userSpaceOnUse" x="310" y="267" width="496" height="383">
<path d="M310.561 267.822H805.996V649.228H310.561V267.822Z" fill="white"/>
</mask>
<g mask="url(#mask3_914_132)">
<mask id="mask4_914_132" style="mask-type:luminance" maskUnits="userSpaceOnUse" x="310" y="267" width="496" height="383">
<path d="M336.267 267.822H779.881C794.078 267.822 805.587 278.528 805.587 291.737V625.313C805.587 638.522 794.078 649.228 779.881 649.228H336.267C322.075 649.228 310.561 638.522 310.561 625.313V291.737C310.561 278.528 322.075 267.822 336.267 267.822Z" fill="white"/>
</mask>
<g mask="url(#mask4_914_132)">
<path d="M310.561 267.822H805.138V649.228H310.561V267.822Z" fill="#EFEFEF"/>
</g>
</g>
<mask id="mask5_914_132" style="mask-type:luminance" maskUnits="userSpaceOnUse" x="352" y="304" width="22" height="20">
<path d="M352.999 304.216H373.881V323.643H352.999V304.216Z" fill="white"/>
</mask>
<g mask="url(#mask5_914_132)">
<mask id="mask6_914_132" style="mask-type:luminance" maskUnits="userSpaceOnUse" x="352" y="304" width="22" height="20">
<path d="M363.44 304.216C357.673 304.216 352.999 308.565 352.999 313.93C352.999 319.295 357.673 323.643 363.44 323.643C369.207 323.643 373.881 319.295 373.881 313.93C373.881 308.565 369.207 304.216 363.44 304.216Z" fill="white"/>
</mask>
<g mask="url(#mask6_914_132)">
<path d="M352.999 304.216H373.881V323.643H352.999V304.216Z" fill="#A1DFDB"/>
</g>
</g>
<mask id="mask7_914_132" style="mask-type:luminance" maskUnits="userSpaceOnUse" x="388" y="304" width="22" height="20">
<path d="M388.184 304.216H409.071V323.643H388.184V304.216Z" fill="white"/>
</mask>
<g mask="url(#mask7_914_132)">
<mask id="mask8_914_132" style="mask-type:luminance" maskUnits="userSpaceOnUse" x="388" y="304" width="22" height="20">
<path d="M398.625 304.216C392.858 304.216 388.184 308.565 388.184 313.93C388.184 319.295 392.858 323.643 398.625 323.643C404.391 323.643 409.071 319.295 409.071 313.93C409.071 308.565 404.391 304.216 398.625 304.216Z" fill="white"/>
</mask>
<g mask="url(#mask8_914_132)">
<path d="M388.184 304.216H409.071V323.643H388.184V304.216Z" fill="#A1DFDB"/>
</g>
</g>
<mask id="mask9_914_132" style="mask-type:luminance" maskUnits="userSpaceOnUse" x="423" y="304" width="22" height="20">
<path d="M423.552 304.216H444.434V323.643H423.552V304.216Z" fill="white"/>
</mask>
<g mask="url(#mask9_914_132)">
<mask id="mask10_914_132" style="mask-type:luminance" maskUnits="userSpaceOnUse" x="423" y="304" width="22" height="20">
<path d="M433.993 304.216C428.226 304.216 423.552 308.565 423.552 313.93C423.552 319.295 428.226 323.643 433.993 323.643C439.76 323.643 444.434 319.295 444.434 313.93C444.434 308.565 439.76 304.216 433.993 304.216Z" fill="white"/>
</mask>
<g mask="url(#mask10_914_132)">
<path d="M423.552 304.216H444.434V323.643H423.552V304.216Z" fill="#A1DFDB"/>
</g>
</g>
<mask id="mask11_914_132" style="mask-type:luminance" maskUnits="userSpaceOnUse" x="620" y="120" width="70" height="65">
<path d="M620.067 120.225H689.578V184.892H620.067V120.225Z" fill="white"/>
</mask>
<g mask="url(#mask11_914_132)">
<mask id="mask12_914_132" style="mask-type:luminance" maskUnits="userSpaceOnUse" x="620" y="120" width="70" height="65">
<path d="M654.822 120.225C635.626 120.225 620.067 134.7 620.067 152.559C620.067 170.417 635.626 184.892 654.822 184.892C674.018 184.892 689.578 170.417 689.578 152.559C689.578 134.7 674.018 120.225 654.822 120.225Z" fill="white"/>
</mask>
<g mask="url(#mask12_914_132)">
<path d="M620.067 120.225H689.578V184.892H620.067V120.225Z" fill="#01A4FD"/>
</g>
</g>
<path d="M432.997 484.134V467.316L474.422 412.181H499.444V466.09H510.2V484.134H499.444V499.988H477.036V484.134H432.997ZM478.612 435.107L456.583 466.09H478.612V435.107Z" fill="#626262"/>
<path d="M521.217 454.265C521.217 440.282 524.115 429.269 529.917 421.222C535.729 413.165 545.102 409.137 558.032 409.137C570.973 409.137 580.346 413.165 586.148 421.222C591.96 429.269 594.868 440.282 594.868 454.265C594.868 468.411 591.96 479.507 586.148 487.55C580.346 495.597 570.973 499.617 558.032 499.617C545.102 499.617 535.729 495.597 529.917 487.55C524.115 479.507 521.217 468.411 521.217 454.265ZM572.858 454.265C572.858 446.051 571.891 439.725 569.965 435.293C568.05 430.866 564.069 428.647 558.032 428.647C552.006 428.647 548.025 430.866 546.1 435.293C544.184 439.725 543.226 446.051 543.226 454.265C543.226 459.788 543.571 464.359 544.264 467.984C544.967 471.599 546.389 474.528 548.534 476.765C550.674 478.992 553.842 480.106 558.032 480.106C562.233 480.106 565.406 478.992 567.551 476.765C569.691 474.528 571.107 471.599 571.801 467.984C572.504 464.359 572.858 459.788 572.858 454.265Z" fill="#626262"/>
<path d="M607.198 484.134V467.316L648.623 412.181H673.646V466.09H684.401V484.134H673.646V499.988H651.237V484.134H607.198ZM652.813 435.107L630.784 466.09H652.813V435.107Z" fill="#626262"/>
<mask id="mask13_914_132" style="mask-type:luminance" maskUnits="userSpaceOnUse" x="60" y="498" width="70" height="65">
<path d="M60 498.319H129.516V562.986H60V498.319Z" fill="white"/>
</mask>
<g mask="url(#mask13_914_132)">
<mask id="mask14_914_132" style="mask-type:luminance" maskUnits="userSpaceOnUse" x="60" y="498" width="70" height="65">
<path d="M94.7554 498.319C75.5594 498.319 60 512.794 60 530.652C60 548.511 75.5594 562.986 94.7554 562.986C113.951 562.986 129.516 548.511 129.516 530.652C129.516 512.794 113.951 498.319 94.7554 498.319Z" fill="white"/>
</mask>
<g mask="url(#mask14_914_132)">
<path d="M60 498.319H129.516V562.986H60V498.319Z" fill="#41BCFF"/>
</g>
</g>
<defs>
<linearGradient id="paint0_linear_914_132" x1="40.3247" y1="22.0258" x2="13.5886" y2="33.8798" gradientUnits="userSpaceOnUse">
<stop stop-color="#A1DFDB"/>
<stop offset="0.525" stop-color="#56B0FF"/>
<stop offset="1" stop-color="#00A4FD"/>
</linearGradient>
<linearGradient id="paint1_linear_914_132" x1="60.8832" y1="17.6532" x2="6.99583" y2="31.5063" gradientUnits="userSpaceOnUse">
<stop stop-color="#A1DFDB"/>
<stop offset="0.56" stop-color="#56B0FF"/>
<stop offset="1" stop-color="#00A4FD"/>
</linearGradient>
<linearGradient id="paint2_linear_914_132" x1="28.7471" y1="21.9465" x2="23.4537" y2="2.34466" gradientUnits="userSpaceOnUse">
<stop stop-color="#00A4FD"/>
<stop offset="0.505" stop-color="#56B0FF"/>
<stop offset="1" stop-color="#A1DFDB"/>
</linearGradient>
</defs>
</svg>
