<svg width="22" height="22" viewBox="0 0 22 22" fill="none" xmlns="http://www.w3.org/2000/svg">
<path d="M10.9375 0C13.8383 0 16.6203 1.15234 18.6715 3.20352C20.7227 5.2547 21.875 8.03669 21.875 10.9375C21.875 13.8383 20.7227 16.6203 18.6715 18.6715C16.6203 20.7227 13.8383 21.875 10.9375 21.875C8.03669 21.875 5.2547 20.7227 3.20352 18.6715C1.15234 16.6203 0 13.8383 0 10.9375C0 8.03669 1.15234 5.2547 3.20352 3.20352C5.2547 1.15234 8.03669 0 10.9375 0ZM10.9375 20.3125C13.4239 20.3125 15.8085 19.3248 17.5666 17.5666C19.3248 15.8085 20.3125 13.4239 20.3125 10.9375C20.3125 8.4511 19.3248 6.06653 17.5666 4.30837C15.8085 2.55022 13.4239 1.5625 10.9375 1.5625C8.4511 1.5625 6.06653 2.55022 4.30837 4.30837C2.55022 6.06653 1.5625 8.4511 1.5625 10.9375C1.5625 13.4239 2.55022 15.8085 4.30837 17.5666C6.06653 19.3248 8.4511 20.3125 10.9375 20.3125ZM12.1094 16.0156C12.1094 16.3264 11.9859 16.6245 11.7661 16.8443C11.5464 17.064 11.2483 17.1875 10.9375 17.1875C10.6267 17.1875 10.3286 17.064 10.1089 16.8443C9.88909 16.6245 9.76563 16.3264 9.76562 16.0156C9.76562 15.7048 9.88909 15.4068 10.1089 15.187C10.3286 14.9672 10.6267 14.8438 10.9375 14.8438C11.2483 14.8438 11.5464 14.9672 11.7661 15.187C11.9859 15.4068 12.1094 15.7048 12.1094 16.0156ZM10.9375 4.6875C11.1447 4.6875 11.3434 4.76981 11.4899 4.91632C11.6364 5.06284 11.7188 5.26155 11.7188 5.46875V12.5C11.7188 12.7072 11.6364 12.9059 11.4899 13.0524C11.3434 13.1989 11.1447 13.2812 10.9375 13.2812C10.7303 13.2812 10.5316 13.1989 10.3851 13.0524C10.2386 12.9059 10.1562 12.7072 10.1562 12.5V5.46875C10.1562 5.26155 10.2386 5.06284 10.3851 4.91632C10.5316 4.76981 10.7303 4.6875 10.9375 4.6875Z" fill="#FFCF00"/>
</svg>
