<svg width="20" height="23" viewBox="0 0 20 23" fill="none" xmlns="http://www.w3.org/2000/svg">
<path d="M16.3362 7.7181L10.48 14.1223C10.3522 14.2627 10.1797 14.3415 10 14.3415C9.82026 14.3415 9.64777 14.2627 9.52 14.1223L3.66374 7.71949C3.53518 7.57911 3.36213 7.50044 3.18187 7.50044C3.00161 7.50044 2.82856 7.57911 2.7 7.71949C2.63668 7.78807 2.58637 7.87003 2.55202 7.96056C2.51766 8.05108 2.49996 8.14833 2.49996 8.24657C2.49996 8.34481 2.51766 8.44206 2.55202 8.53259C2.58637 8.62311 2.63668 8.70508 2.7 8.77365L8.555 15.1764C8.94065 15.5972 9.45952 15.8329 10 15.8329C10.5405 15.8329 11.0593 15.5972 11.445 15.1764L17.3 8.77365C17.3635 8.70505 17.414 8.623 17.4484 8.53235C17.4829 8.4417 17.5007 8.34429 17.5007 8.24588C17.5007 8.14747 17.4829 8.05006 17.4484 7.9594C17.414 7.86875 17.3635 7.7867 17.3 7.7181C17.1714 7.57772 16.9984 7.49905 16.8181 7.49905C16.6379 7.49905 16.4648 7.57772 16.3362 7.7181Z" fill="#CDCDCD"/>
</svg>
