<svg width="24" height="12" viewBox="0 0 24 12" fill="none" xmlns="http://www.w3.org/2000/svg">
<path d="M21.5043 0.669307L12.72 9.31493C12.5283 9.50455 12.2696 9.6109 12 9.6109C11.7304 9.6109 11.4716 9.50455 11.28 9.31493L2.49559 0.671182C2.30273 0.481665 2.04316 0.375472 1.77278 0.375472C1.50239 0.375472 1.24282 0.481665 1.04996 0.671182C0.954996 0.763764 0.879524 0.874418 0.827991 0.996625C0.776461 1.11883 0.74991 1.25012 0.74991 1.38275C0.74991 1.51537 0.776461 1.64666 0.827991 1.76886C0.879524 1.89107 0.954996 2.00173 1.04996 2.09431L9.83246 10.7381C10.4109 11.306 11.1893 11.6243 12 11.6243C12.8107 11.6243 13.589 11.306 14.1675 10.7381L22.95 2.09431C23.0452 2.0017 23.1209 1.89093 23.1726 1.76855C23.2243 1.64616 23.251 1.51466 23.251 1.38181C23.251 1.24895 23.2243 1.11745 23.1726 0.99507C23.1209 0.872689 23.0452 0.761917 22.95 0.669307C22.7571 0.47979 22.4975 0.373596 22.2271 0.373596C21.9568 0.373596 21.6972 0.47979 21.5043 0.669307Z" fill="#626262"/>
</svg>
