<svg width="20" height="23" viewBox="0 0 20 23" fill="none" xmlns="http://www.w3.org/2000/svg">
<path d="M3.66375 15.2819L9.52 8.87773C9.64778 8.73728 9.82026 8.6585 10 8.6585C10.1797 8.6585 10.3522 8.73728 10.48 8.87773L16.3363 15.2805C16.4648 15.4209 16.6379 15.4996 16.8181 15.4996C16.9984 15.4996 17.1714 15.4209 17.3 15.2805C17.3633 15.2119 17.4136 15.13 17.448 15.0394C17.4823 14.9489 17.5 14.8517 17.5 14.7534C17.5 14.6552 17.4823 14.5579 17.448 14.4674C17.4136 14.3769 17.3633 14.2949 17.3 14.2263L11.445 7.82357C11.0594 7.40284 10.5405 7.16711 10 7.16711C9.45953 7.16711 8.94066 7.40284 8.555 7.82357L2.7 14.2263C2.6365 14.2949 2.58602 14.377 2.55156 14.4676C2.51709 14.5583 2.49933 14.6557 2.49933 14.7541C2.49933 14.8525 2.51709 14.9499 2.55156 15.0406C2.58602 15.1312 2.6365 15.2133 2.7 15.2819C2.82857 15.4223 3.00162 15.5009 3.18188 15.5009C3.36214 15.5009 3.53519 15.4223 3.66375 15.2819Z" fill="#CDCDCD"/>
</svg>
