<svg width="26" height="26" viewBox="0 0 26 26" fill="none" xmlns="http://www.w3.org/2000/svg">
<path d="M4.33325 8.66675H14.0833M18.4166 8.66675H21.6666M11.9166 17.3334H21.6666M4.33325 17.3334H7.58325" stroke="black" stroke-width="1.6" stroke-linecap="round" stroke-linejoin="round"/>
<path d="M9.74992 19.5001C10.9465 19.5001 11.9166 18.53 11.9166 17.3334C11.9166 16.1368 10.9465 15.1667 9.74992 15.1667C8.5533 15.1667 7.58325 16.1368 7.58325 17.3334C7.58325 18.53 8.5533 19.5001 9.74992 19.5001Z" stroke="black" stroke-width="1.6"/>
<path d="M16.2499 10.8333C17.4465 10.8333 18.4166 9.86328 18.4166 8.66667C18.4166 7.47005 17.4465 6.5 16.2499 6.5C15.0533 6.5 14.0833 7.47005 14.0833 8.66667C14.0833 9.86328 15.0533 10.8333 16.2499 10.8333Z" stroke="black" stroke-width="1.6"/>
</svg>
