<svg width="18" height="11" viewBox="0 0 18 11" fill="none" xmlns="http://www.w3.org/2000/svg">
<path d="M16.6028 0.289121L9.57559 8.74212C9.42226 8.92751 9.21529 9.03149 8.99962 9.03149C8.78394 9.03149 8.57697 8.92751 8.42364 8.74212L1.39648 0.290955C1.2422 0.105661 1.03455 0.001834 0.818252 0.001834C0.601953 0.001834 0.394306 0.105661 0.24003 0.290955C0.164061 0.381475 0.103685 0.489664 0.0624618 0.609148C0.0212382 0.728631 4.03834e-08 0.856992 4.03834e-08 0.986665C4.03834e-08 1.11634 0.0212382 1.2447 0.0624618 1.36418C0.103685 1.48366 0.164061 1.59185 0.24003 1.68237L7.2657 10.1335C7.72846 10.6889 8.35108 11 8.99962 11C9.64815 11 10.2708 10.6889 10.7335 10.1335L17.7592 1.68237C17.8354 1.59182 17.896 1.48352 17.9373 1.36387C17.9787 1.24422 18 1.11564 18 0.985747C18 0.855853 17.9787 0.72728 17.9373 0.607626C17.896 0.487973 17.8354 0.379669 17.7592 0.289121C17.6049 0.103827 17.3973 3.90799e-08 17.181 3.90799e-08C16.9647 3.90799e-08 16.757 0.103827 16.6028 0.289121Z" fill="#303030"/>
</svg>
