<svg width="105" height="106" viewBox="0 0 105 106" fill="none" xmlns="http://www.w3.org/2000/svg">
<path d="M52.5001 9.74992C41.4494 9.74992 29.5849 14.9567 21.7709 22.7708C13.9569 30.5848 9.5 41.9284 9.5 52.9791C9.5 64.0298 13.9569 75.3734 21.7709 83.1874C29.5849 91.0014 41.4494 96 52.5001 96C63.5508 96 74.8944 91.0014 82.7084 83.1874C90.5224 75.3734 95.2084 64.0298 95.2084 52.9791C95.2084 41.9284 90.5224 30.5848 82.7084 22.7708C74.8944 14.9567 63.5508 9.74992 52.5001 9.74992ZM0.416748 52.9791C0.416748 24.2135 23.7345 0.895752 52.5001 0.895752C81.2657 0.895752 104.583 24.2135 104.583 52.9791C104.583 81.7447 81.2657 105.062 52.5001 105.062C23.7345 105.062 0.416748 81.7447 0.416748 52.9791ZM30.5886 31.0676C31.5653 30.0912 32.8898 29.5427 34.2709 29.5427C35.652 29.5427 36.9765 30.0912 37.9532 31.0676L52.5001 45.6145L67.047 31.0676C67.5274 30.5702 68.1021 30.1734 68.7376 29.9004C69.373 29.6275 70.0564 29.4838 70.748 29.4778C71.4396 29.4718 72.1254 29.6035 72.7655 29.8654C73.4055 30.1273 73.9871 30.514 74.4761 31.0031C74.9651 31.4921 75.3519 32.0736 75.6137 32.7137C75.8756 33.3538 76.0074 34.0396 76.0014 34.7312C75.9954 35.4227 75.8517 36.1062 75.5787 36.7416C75.3058 37.377 74.909 37.9518 74.4115 38.4322L59.8647 52.9791L74.4115 67.526C75.3603 68.5083 75.8852 69.8239 75.8734 71.1895C75.8615 72.5551 75.3138 73.8614 74.3481 74.8271C73.3824 75.7928 72.0761 76.3405 70.7105 76.3524C69.3449 76.3643 68.0293 75.8393 67.047 74.8905L52.5001 60.3437L37.9532 74.8905C36.9709 75.8393 35.6553 76.3643 34.2897 76.3524C32.9241 76.3405 31.6177 75.7928 30.6521 74.8271C29.6864 73.8614 29.1386 72.5551 29.1268 71.1895C29.1149 69.8239 29.6399 68.5083 30.5886 67.526L45.1355 52.9791L30.5886 38.4322C29.6122 37.4555 29.0637 36.131 29.0637 34.7499C29.0637 33.3689 29.6122 32.0443 30.5886 31.0676Z" fill="#FF6B6B"/>
</svg>
