<svg width="53" height="53" viewBox="0 0 53 53" fill="none" xmlns="http://www.w3.org/2000/svg">
<path d="M12.1035 45.7103C11.351 45.6891 10.6105 45.517 9.9259 45.2041C9.24129 44.8911 8.62654 44.4438 8.11817 43.8887C7.6098 43.3336 7.21818 42.6819 6.96657 41.9725C6.71496 41.263 6.60848 40.5103 6.65347 39.7589C6.62731 35.0653 6.65347 30.3718 6.65347 25.6783C6.65347 25.3892 6.76831 25.1119 6.97273 24.9075C7.17714 24.7031 7.45439 24.5883 7.74347 24.5883C8.03256 24.5883 8.3098 24.7031 8.51422 24.9075C8.71863 25.1119 8.83347 25.3892 8.83347 25.6783C8.83347 30.4743 8.76371 35.2703 8.83347 40.0663C8.86835 42.4795 10.6821 43.5303 12.8403 43.5303H40.0097C40.6955 43.5459 41.3699 43.3523 41.9431 42.9754C42.5163 42.5984 42.9612 42.056 43.2186 41.42C43.4287 40.6682 43.5026 39.8849 43.4366 39.1071V25.6783C43.4366 25.3892 43.5515 25.1119 43.7559 24.9075C43.9603 24.7031 44.2375 24.5883 44.5266 24.5883C44.8157 24.5883 45.0929 24.7031 45.2974 24.9075C45.5018 25.1119 45.6166 25.3892 45.6166 25.6783C45.6166 30.5266 45.8019 35.412 45.6166 40.2559C45.5979 40.9977 45.4318 41.7284 45.128 42.4054C44.8242 43.0824 44.3888 43.6922 43.8472 44.1994C43.3055 44.7065 42.6684 45.1009 41.9729 45.3595C41.2774 45.6182 40.5374 45.7359 39.796 45.7059L12.1035 45.7103Z" fill="#EBCAE8"/>
<path d="M26.8945 6.92368C26.7152 6.74043 26.4726 6.63278 26.2165 6.62284C26.186 6.62574 26.1547 6.62138 26.1228 6.60975C26.0748 6.59231 26.0639 6.60976 26.0334 6.62284C25.7765 6.63223 25.533 6.73992 25.3532 6.92368L17.3548 14.9221C17.1563 15.1277 17.0464 15.403 17.0489 15.6888C17.0514 15.9746 17.166 16.248 17.3681 16.4501C17.5702 16.6522 17.8436 16.7668 18.1294 16.7693C18.4152 16.7718 18.6905 16.6619 18.8961 16.4634L25.0349 10.3267V33.7442C25.0349 34.0333 25.1498 34.3105 25.3542 34.515C25.5586 34.7194 25.8359 34.8342 26.1249 34.8342C26.414 34.8342 26.6913 34.7194 26.8957 34.515C27.1001 34.3105 27.2149 34.0333 27.2149 33.7442V10.3267L33.3538 16.4634C33.5594 16.6619 33.8347 16.7718 34.1205 16.7693C34.4063 16.7668 34.6797 16.6522 34.8818 16.4501C35.0839 16.248 35.1985 15.9746 35.201 15.6888C35.2035 15.403 35.0936 15.1277 34.8951 14.9221L26.8945 6.92368Z" fill="#EBCAE8"/>
</svg>
