<svg xmlns="http://www.w3.org/2000/svg" xmlns:xlink="http://www.w3.org/1999/xlink" width="1080" zoomAndPan="magnify" viewBox="0 0 810 809.999993" height="1080" preserveAspectRatio="xMidYMid meet" version="1.0"><path fill="#ebcae8" d="M 140.527344 782.414062 C 126.03125 782.007812 111.769531 778.691406 98.585938 772.667969 C 85.402344 766.636719 73.5625 758.023438 63.769531 747.332031 C 53.980469 736.640625 46.4375 724.089844 41.589844 710.429688 C 36.746094 696.761719 34.695312 682.265625 35.5625 667.796875 C 35.058594 577.398438 35.5625 487.003906 35.5625 396.609375 C 35.5625 391.042969 37.773438 385.703125 41.710938 381.765625 C 45.648438 377.828125 50.988281 375.617188 56.554688 375.617188 C 62.121094 375.617188 67.460938 377.828125 71.398438 381.765625 C 75.335938 385.703125 77.546875 391.042969 77.546875 396.609375 C 77.546875 488.980469 76.203125 581.347656 77.546875 673.714844 C 78.21875 720.191406 113.148438 740.429688 154.714844 740.429688 L 677.984375 740.429688 C 691.191406 740.730469 704.179688 737.003906 715.21875 729.742188 C 726.257812 722.484375 734.828125 712.035156 739.785156 699.785156 C 743.832031 685.308594 745.253906 670.222656 743.984375 655.242188 L 743.984375 396.609375 C 743.984375 391.042969 746.195312 385.703125 750.132812 381.765625 C 754.070312 377.828125 759.410156 375.617188 764.976562 375.617188 C 770.542969 375.617188 775.882812 377.828125 779.820312 381.765625 C 783.757812 385.703125 785.96875 391.042969 785.96875 396.609375 C 785.96875 489.988281 789.539062 584.078125 785.96875 677.367188 C 785.609375 691.652344 782.410156 705.726562 776.558594 718.765625 C 770.707031 731.804688 762.320312 743.546875 751.890625 753.316406 C 741.457031 763.082031 729.1875 770.679688 715.792969 775.660156 C 702.398438 780.640625 688.144531 782.910156 673.867188 782.332031 Z M 140.527344 782.414062 " fill-opacity="1" fill-rule="nonzero"/><path fill="#ebcae8" d="M 425.390625 35.40625 C 421.9375 31.878906 417.265625 29.804688 412.332031 29.613281 C 411.746094 29.667969 411.144531 29.585938 410.53125 29.363281 C 409.605469 29.027344 409.394531 29.363281 408.808594 29.613281 C 403.859375 29.792969 399.171875 31.867188 395.707031 35.40625 L 241.664062 189.453125 C 237.839844 193.414062 235.722656 198.714844 235.769531 204.21875 C 235.820312 209.722656 238.027344 214.988281 241.917969 218.882812 C 245.8125 222.773438 251.078125 224.980469 256.582031 225.027344 C 262.085938 225.078125 267.386719 222.960938 271.347656 219.136719 L 389.578125 100.949219 L 389.578125 551.957031 C 389.578125 557.523438 391.789062 562.863281 395.726562 566.800781 C 399.664062 570.738281 405.003906 572.949219 410.570312 572.949219 C 416.136719 572.949219 421.476562 570.738281 425.414062 566.800781 C 429.351562 562.863281 431.5625 557.523438 431.5625 551.957031 L 431.5625 100.949219 L 549.792969 219.136719 C 553.753906 222.960938 559.054688 225.078125 564.558594 225.027344 C 570.066406 224.980469 575.332031 222.773438 579.222656 218.882812 C 583.113281 214.988281 585.320312 209.722656 585.371094 204.21875 C 585.417969 198.714844 583.300781 193.414062 579.480469 189.453125 Z M 425.390625 35.40625 " fill-opacity="1" fill-rule="nonzero"/></svg>