<svg width="40" height="40" viewBox="0 0 40 40" fill="none" xmlns="http://www.w3.org/2000/svg">
<path d="M9.25319 34.9467C8.67793 34.9305 8.11179 34.7989 7.58838 34.5597C7.06498 34.3204 6.59499 33.9784 6.20633 33.554C5.81767 33.1296 5.51826 32.6314 5.3259 32.089C5.13353 31.5466 5.05213 30.9711 5.08653 30.3967C5.06653 26.8083 5.08653 23.22 5.08653 19.6317C5.08653 19.4107 5.17432 19.1987 5.3306 19.0424C5.48688 18.8861 5.69885 18.7983 5.91986 18.7983C6.14087 18.7983 6.35283 18.8861 6.50911 19.0424C6.66539 19.1987 6.75319 19.4107 6.75319 19.6317C6.75319 23.2983 6.69986 26.965 6.75319 30.6317C6.77986 32.4767 8.16653 33.28 9.81653 33.28H30.5882C31.1126 33.2919 31.6281 33.144 32.0664 32.8558C32.5046 32.5676 32.8447 32.1528 33.0415 31.6667C33.2022 31.0919 33.2586 30.493 33.2082 29.8983V19.6317C33.2082 19.4107 33.296 19.1987 33.4523 19.0424C33.6086 18.8861 33.8205 18.7983 34.0415 18.7983C34.2625 18.7983 34.4745 18.8861 34.6308 19.0424C34.7871 19.1987 34.8749 19.4107 34.8749 19.6317C34.8749 23.3383 35.0165 27.0733 34.8749 30.7767C34.8605 31.3438 34.7335 31.9024 34.5013 32.42C34.269 32.9376 33.9362 33.4038 33.5221 33.7915C33.108 34.1793 32.6209 34.4808 32.0892 34.6785C31.5574 34.8763 30.9917 34.9663 30.4249 34.9433L9.25319 34.9467Z" fill="#01A4FD"/>
<path d="M20.5614 5.29334C20.4244 5.15324 20.2389 5.07094 20.0431 5.06334C20.0198 5.06556 19.9959 5.06223 19.9714 5.05334C19.9348 5.04001 19.9264 5.05334 19.9031 5.06334C19.7067 5.07052 19.5206 5.15286 19.3831 5.29334L13.2681 11.4083C13.1163 11.5655 13.0323 11.776 13.0342 11.9945C13.0361 12.213 13.1238 12.422 13.2783 12.5765C13.4328 12.731 13.6418 12.8187 13.8603 12.8206C14.0788 12.8225 14.2893 12.7385 14.4464 12.5867L19.1398 7.89501V25.7983C19.1398 26.0194 19.2276 26.2313 19.3839 26.3876C19.5401 26.5439 19.7521 26.6317 19.9731 26.6317C20.1941 26.6317 20.4061 26.5439 20.5624 26.3876C20.7186 26.2313 20.8064 26.0194 20.8064 25.7983V7.89501L25.4998 12.5867C25.6569 12.7385 25.8674 12.8225 26.0859 12.8206C26.3044 12.8187 26.5134 12.731 26.668 12.5765C26.8225 12.422 26.9101 12.213 26.912 11.9945C26.9139 11.776 26.8299 11.5655 26.6781 11.4083L20.5614 5.29334Z" fill="#01A4FD"/>
</svg>
