<svg width="40" height="40" viewBox="0 0 40 40" fill="none" xmlns="http://www.w3.org/2000/svg">
<path fill-rule="evenodd" clip-rule="evenodd" d="M11.093 7.63366C9.43483 9.45411 8.1674 11.6684 7.38542 14.111C6.60343 16.5537 6.32712 19.1616 6.57711 21.7399C6.59365 21.9145 6.57916 22.0911 6.53445 22.2594C6.48974 22.4278 6.41569 22.5847 6.31654 22.7212C6.21739 22.8577 6.09507 22.9711 5.95656 23.055C5.81806 23.1388 5.66609 23.1915 5.50932 23.2099C5.35255 23.2283 5.19406 23.2122 5.0429 23.1624C4.89173 23.1126 4.75085 23.0301 4.6283 22.9196C4.50575 22.8092 4.40393 22.673 4.32866 22.5187C4.25338 22.3644 4.20612 22.1952 4.18958 22.0205C3.90159 19.0424 4.22139 16.0303 5.1251 13.2091C6.02881 10.3879 7.49308 7.83055 9.40855 5.72806C16.456 -2.01461 27.8249 -1.889 34.8003 5.98998C41.7758 13.8663 41.7302 26.5293 34.6804 34.272C31.4172 37.8627 27.0364 39.9133 22.45 39.9968C20.716 40.0312 18.9866 39.7873 17.315 39.2725C17.0083 39.1782 16.7477 38.9521 16.5906 38.6439C16.4336 38.3356 16.3929 37.9705 16.4776 37.6288C16.5622 37.2872 16.7652 36.997 17.042 36.822C17.3187 36.6471 17.6465 36.6018 17.9533 36.6961C19.403 37.1427 20.9029 37.3542 22.4068 37.3242C26.3778 37.2535 30.1711 35.4785 32.9959 32.3691C39.0931 25.6714 39.1435 14.7028 33.0919 7.86618C27.0403 1.02954 17.1902 0.935995 11.093 7.63366Z" fill="#303030"/>
<path fill-rule="evenodd" clip-rule="evenodd" d="M6.26997 23.4371C6.16504 23.568 6.03798 23.6746 5.89606 23.7509C5.75414 23.8271 5.60012 23.8714 5.44281 23.8814C5.2855 23.8913 5.12798 23.8666 4.97923 23.8087C4.83049 23.7508 4.69343 23.6609 4.5759 23.544L0.448712 19.4548C0.321839 19.3414 0.217006 19.2004 0.140587 19.0404C0.0641677 18.8804 0.0177594 18.7048 0.00418402 18.5242C-0.00939133 18.3437 0.0101493 18.1619 0.0616186 17.99C0.113088 17.8181 0.19541 17.6596 0.303579 17.5243C0.411748 17.3889 0.543505 17.2795 0.690837 17.2026C0.838169 17.1257 0.997998 17.083 1.16061 17.0771C1.32321 17.0712 1.4852 17.1022 1.63672 17.1682C1.78824 17.2342 1.92613 17.3338 2.042 17.461L6.16919 21.5502C6.28706 21.6667 6.38318 21.8079 6.45204 21.9658C6.52091 22.1237 6.56117 22.2952 6.57053 22.4704C6.57989 22.6456 6.55816 22.8212 6.50659 22.987C6.45502 23.1529 6.37461 23.3058 6.26997 23.4371Z" fill="#303030"/>
<path fill-rule="evenodd" clip-rule="evenodd" d="M4.41281 23.2687C4.50734 23.4091 4.62578 23.5273 4.76135 23.6168C4.89692 23.7062 5.04698 23.765 5.20295 23.7898C5.35892 23.8146 5.51775 23.8049 5.67038 23.7614C5.823 23.7178 5.96643 23.6412 6.09248 23.5359L10.8915 19.527C11.0176 19.4217 11.1238 19.2898 11.204 19.1387C11.2843 18.9877 11.3371 18.8206 11.3594 18.6469C11.3817 18.4732 11.373 18.2962 11.3339 18.1262C11.2948 17.9563 11.226 17.7965 11.1315 17.6561C11.037 17.5157 10.9185 17.3974 10.7829 17.308C10.6474 17.2186 10.4973 17.1598 10.3413 17.135C10.1854 17.1102 10.0265 17.1198 9.87392 17.1634C9.72129 17.2069 9.57786 17.2835 9.45182 17.3888L4.65276 21.3978C4.3982 21.6105 4.22991 21.927 4.18491 22.2779C4.13991 22.6287 4.22189 22.9851 4.41281 23.2687ZM21.6414 10.4399C21.9596 10.4399 22.2648 10.5807 22.4898 10.8313C22.7148 11.082 22.8412 11.4219 22.8412 11.7763V21.1306C22.8412 21.485 22.7148 21.8249 22.4898 22.0755C22.2648 22.3261 21.9596 22.4669 21.6414 22.4669C21.3232 22.4669 21.0181 22.3261 20.7931 22.0755C20.5681 21.8249 20.4417 21.485 20.4417 21.1306V11.7763C20.4417 11.4219 20.5681 11.082 20.7931 10.8313C21.0181 10.5807 21.3232 10.4399 21.6414 10.4399Z" fill="#303030"/>
<path fill-rule="evenodd" clip-rule="evenodd" d="M30.04 21.1305C30.04 21.4849 29.9136 21.8248 29.6886 22.0754C29.4636 22.3261 29.1584 22.4668 28.8402 22.4668H21.6417C21.3235 22.4668 21.0183 22.3261 20.7933 22.0754C20.5683 21.8248 20.4419 21.4849 20.4419 21.1305C20.4419 20.7761 20.5683 20.4362 20.7933 20.1856C21.0183 19.935 21.3235 19.7942 21.6417 19.7942H28.8402C29.1584 19.7942 29.4636 19.935 29.6886 20.1856C29.9136 20.4362 30.04 20.7761 30.04 21.1305Z" fill="#303030"/>
</svg>
