<svg width="23" height="23" viewBox="0 0 23 23" fill="none" xmlns="http://www.w3.org/2000/svg">
<g clip-path="url(#clip0_143_213)">
<path d="M4.47211 3.83332H14.6943V10.0944H15.9721V3.83332C15.9721 3.49443 15.8375 3.16942 15.5979 2.92979C15.3582 2.69016 15.0332 2.55554 14.6943 2.55554H4.47211C4.13323 2.55554 3.80822 2.69016 3.56859 2.92979C3.32896 3.16942 3.19434 3.49443 3.19434 3.83332V19.1667C3.19434 19.5055 3.32896 19.8305 3.56859 20.0702C3.80822 20.3098 4.13323 20.4444 4.47211 20.4444H14.6943C15.0332 20.4444 15.3582 20.3098 15.5979 20.0702C15.8375 19.8305 15.9721 19.5055 15.9721 19.1667H4.47211V3.83332Z" fill="white"/>
<path d="M17.9913 11.04C17.8691 10.9353 17.7119 10.8806 17.5511 10.8868C17.3903 10.893 17.2378 10.9597 17.124 11.0735C17.0102 11.1873 16.9436 11.3398 16.9374 11.5006C16.9311 11.6614 16.9858 11.8186 17.0905 11.9408L19.2499 14.0555H9.98606C9.81661 14.0555 9.65411 14.1228 9.53429 14.2427C9.41448 14.3625 9.34717 14.525 9.34717 14.6944C9.34717 14.8639 9.41448 15.0264 9.53429 15.1462C9.65411 15.266 9.81661 15.3333 9.98606 15.3333H19.2499L17.0905 17.5439C17.0236 17.6011 16.9693 17.6716 16.931 17.7509C16.8926 17.8301 16.8711 17.9165 16.8677 18.0045C16.8643 18.0925 16.8791 18.1802 16.9112 18.2622C16.9433 18.3442 16.992 18.4186 17.0543 18.4809C17.1166 18.5432 17.191 18.5919 17.273 18.624C17.355 18.6561 17.4427 18.6709 17.5307 18.6675C17.6187 18.6641 17.7051 18.6426 17.7843 18.6042C17.8636 18.5659 17.9341 18.5116 17.9913 18.4447L21.7224 14.7391L17.9913 11.04Z" fill="white"/>
</g>
<defs>
<clipPath id="clip0_143_213">
<rect width="23" height="23" fill="white"/>
</clipPath>
</defs>
</svg>
