<svg width="18" height="18" viewBox="0 0 18 18" fill="none" xmlns="http://www.w3.org/2000/svg">
<path d="M9 15.75C9.90237 15.75 10.7956 15.5692 11.6268 15.2181C12.4581 14.8669 13.2105 14.3527 13.8396 13.7058C14.4687 13.0589 14.9617 12.2924 15.2894 11.4517C15.6172 10.6109 15.773 9.71299 15.7478 8.81099C14.8038 9.46804 13.6701 9.79691 12.521 9.74706C11.3719 9.69722 10.271 9.2714 9.38748 8.53507C8.50393 7.79873 7.88663 6.79261 7.63045 5.67135C7.37427 4.55009 7.49339 3.37572 7.96951 2.32874C6.28817 2.58783 4.76668 3.47223 3.70943 4.80499C2.65217 6.13774 2.13714 7.82055 2.26738 9.51674C2.39762 11.2129 3.16351 12.7974 4.41183 13.9531C5.66015 15.1088 7.29883 15.7506 9 15.75Z" stroke="#303030" stroke-width="1.5" stroke-linecap="round" stroke-linejoin="round"/>
</svg>
