<svg width="23" height="22" viewBox="0 0 23 22" fill="none" xmlns="http://www.w3.org/2000/svg">
<g clip-path="url(#clip0_143_364)">
<path d="M21.8275 21.0831L17.4041 16.6597M17.4041 16.6597C18.1607 15.9031 18.7609 15.0048 19.1704 14.0162C19.5799 13.0276 19.7907 11.9681 19.7907 10.898C19.7907 9.82798 19.5799 8.76841 19.1704 7.77981C18.7609 6.79122 18.1607 5.89296 17.4041 5.13633C16.6475 4.37969 15.7492 3.77949 14.7606 3.37001C13.772 2.96052 12.7125 2.74976 11.6424 2.74976C10.5724 2.74976 9.51279 2.96052 8.5242 3.37001C7.53561 3.77949 6.63735 4.37969 5.88071 5.13633C4.35262 6.66442 3.49414 8.73697 3.49414 10.898C3.49414 13.0591 4.35262 15.1316 5.88071 16.6597C7.40881 18.1878 9.48135 19.0463 11.6424 19.0463C13.8035 19.0463 15.876 18.1878 17.4041 16.6597Z" stroke="#949494" stroke-width="2" stroke-linecap="round" stroke-linejoin="round"/>
</g>
<defs>
<clipPath id="clip0_143_364">
<rect width="22" height="22" fill="white" transform="translate(0.744141)"/>
</clipPath>
</defs>
</svg>
