<svg width="16" height="18" viewBox="0 0 16 18" fill="none" xmlns="http://www.w3.org/2000/svg">
<g clip-path="url(#clip0_1071_132)">
<path d="M3.11106 3H10.2222V7.9H11.1111V3C11.1111 2.73478 11.0174 2.48043 10.8507 2.29289C10.684 2.10536 10.4579 2 10.2222 2H3.11106C2.87531 2 2.64922 2.10536 2.48252 2.29289C2.31582 2.48043 2.22217 2.73478 2.22217 3V15C2.22217 15.2652 2.31582 15.5196 2.48252 15.7071C2.64922 15.8946 2.87531 16 3.11106 16H10.2222C10.4579 16 10.684 15.8946 10.8507 15.7071C11.0174 15.5196 11.1111 15.2652 11.1111 15H3.11106V3Z" fill="black"/>
<path d="M12.5158 8.64C12.4308 8.55809 12.3214 8.51529 12.2095 8.52015C12.0977 8.52501 11.9916 8.57718 11.9124 8.66622C11.8333 8.75527 11.7869 8.87464 11.7826 9.00048C11.7782 9.12631 11.8163 9.24935 11.8891 9.345L13.3913 11H6.94689C6.82901 11 6.71597 11.0527 6.63262 11.1465C6.54927 11.2402 6.50244 11.3674 6.50244 11.5C6.50244 11.6326 6.54927 11.7598 6.63262 11.8536C6.71597 11.9473 6.82901 12 6.94689 12H13.3913L11.8891 13.73C11.8426 13.7748 11.8048 13.83 11.7781 13.892C11.7514 13.9541 11.7365 14.0216 11.7341 14.0905C11.7317 14.1593 11.742 14.228 11.7644 14.2922C11.7867 14.3563 11.8206 14.4146 11.8639 14.4633C11.9072 14.5121 11.959 14.5502 12.0161 14.5753C12.0731 14.6005 12.1341 14.6121 12.1954 14.6094C12.2566 14.6067 12.3166 14.5899 12.3718 14.5599C12.4269 14.5299 12.4759 14.4873 12.5158 14.435L15.1113 11.535L12.5158 8.64Z" fill="black"/>
</g>
<defs>
<clipPath id="clip0_1071_132">
<rect width="16" height="18" fill="white"/>
</clipPath>
</defs>
</svg>
