<svg width="120" height="120" viewBox="0 0 120 120" fill="none" xmlns="http://www.w3.org/2000/svg">
<g clip-path="url(#clip0_696_513)">
<path d="M60.0001 6.6665C49.4518 6.6665 39.1403 9.79445 30.3697 15.6548C21.5991 21.5151 14.7632 29.8447 10.7265 39.5901C6.68986 49.3354 5.63368 60.059 7.69156 70.4047C9.74944 80.7503 14.8289 90.2534 22.2877 97.7122C29.7465 105.171 39.2496 110.251 49.5953 112.308C59.9409 114.366 70.6645 113.31 80.4099 109.273C90.1553 105.237 98.4848 98.4009 104.345 89.6303C110.206 80.8596 113.333 70.5482 113.333 59.9998C113.333 45.855 107.714 32.2894 97.7125 22.2875C87.7105 12.2855 74.145 6.6665 60.0001 6.6665ZM60.0001 106.667C50.7703 106.667 41.7478 103.93 34.0735 98.8018C26.3992 93.674 20.4178 86.3856 16.8857 77.8584C13.3536 69.3312 12.4295 59.9481 14.2301 50.8956C16.0308 41.8432 20.4753 33.528 27.0018 27.0015C33.5282 20.4751 41.8434 16.0305 50.8959 14.2299C59.9483 12.4292 69.3315 13.3534 77.8587 16.8855C86.3859 20.4176 93.6742 26.3989 98.802 34.0732C103.93 41.7475 106.667 50.77 106.667 59.9998C106.667 72.3766 101.75 84.2465 92.9984 92.9982C84.2467 101.75 72.3769 106.667 60.0001 106.667Z" fill="#419E98"/>
<path d="M93.3333 40.3336C92.7087 39.7127 91.8639 39.3643 90.9833 39.3643C90.1027 39.3643 89.2578 39.7127 88.6333 40.3336L51.6333 77.1669L31.6333 57.1669C31.0233 56.5083 30.1766 56.119 29.2796 56.0846C28.3825 56.0502 27.5086 56.3736 26.85 56.9836C26.1913 57.5936 25.802 58.4402 25.7676 59.3373C25.7332 60.2343 26.0566 61.1083 26.6666 61.7669L51.6333 86.6669L93.3333 45.0669C93.6457 44.757 93.8937 44.3884 94.0629 43.9822C94.2321 43.576 94.3193 43.1403 94.3193 42.7002C94.3193 42.2602 94.2321 41.8245 94.0629 41.4183C93.8937 41.0121 93.6457 40.6434 93.3333 40.3336Z" fill="#419E98"/>
</g>
<defs>
<clipPath id="clip0_696_513">
<rect width="120" height="120" fill="white"/>
</clipPath>
</defs>
</svg>
