<svg width="33" height="33" viewBox="0 0 33 33" fill="none" xmlns="http://www.w3.org/2000/svg">
<path d="M14.0525 6.7375L7.425 8.25H6.875C6.14565 8.25 5.44618 7.96027 4.93046 7.44454C4.41473 6.92882 4.125 6.22935 4.125 5.5C4.125 4.77065 4.41473 4.07118 4.93046 3.55546C5.44618 3.03973 6.14565 2.75 6.875 2.75H7.425L14.1075 4.125" stroke="#00A4FD" stroke-width="1.5" stroke-linecap="round" stroke-linejoin="round"/>
<path d="M16.5 8.25C18.0188 8.25 19.25 7.01878 19.25 5.5C19.25 3.98122 18.0188 2.75 16.5 2.75C14.9812 2.75 13.75 3.98122 13.75 5.5C13.75 7.01878 14.9812 8.25 16.5 8.25Z" stroke="#00A4FD" stroke-width="1.5" stroke-linecap="round" stroke-linejoin="round"/>
<path d="M18.9475 6.7373L25.5475 8.1123H26.0975C26.8268 8.1123 27.5263 7.82257 28.042 7.30685C28.5578 6.79112 28.8475 6.09165 28.8475 5.3623C28.8475 4.63296 28.5578 3.93349 28.042 3.41776C27.5263 2.90204 26.8268 2.6123 26.0975 2.6123H25.5475L18.7825 3.9873M16.5 8.2498V12.3748M30.25 12.3748V23.3748M24.75 13.7498H30.25V21.9998H24.75V13.7498Z" stroke="#00A4FD" stroke-width="1.5" stroke-linecap="round" stroke-linejoin="round"/>
<path d="M24.75 15.1248H21.175C20.7178 14.2838 20.0422 13.5818 19.2195 13.0926C18.3967 12.6034 17.4572 12.3452 16.5 12.3452C15.5428 12.3452 14.6033 12.6034 13.7805 13.0926C12.9578 13.5818 12.2822 14.2838 11.825 15.1248H9.625C5.775 15.1248 2.75 18.1498 2.75 21.9998V23.3748H8.25V21.9998C8.25 21.1748 8.8 20.6248 9.625 20.6248H11.825C12.2822 21.4658 12.9578 22.1678 13.7805 22.657C14.6033 23.1462 15.5428 23.4044 16.5 23.4044C17.4572 23.4044 18.3967 23.1462 19.2195 22.657C20.0422 22.1678 20.7178 21.4658 21.175 20.6248H24.75" stroke="#00A4FD" stroke-width="1.5" stroke-linecap="round" stroke-linejoin="round"/>
<path d="M4.8125 23.375C4.8125 23.375 2.75 26.125 2.75 27.5C2.75 28.2293 3.03973 28.9288 3.55546 29.4445C4.07118 29.9603 4.77065 30.25 5.5 30.25C6.22935 30.25 6.92882 29.9603 7.44454 29.4445C7.96027 28.9288 8.25 28.2293 8.25 27.5C8.25 26.125 6.1875 23.375 6.1875 23.375" stroke="#00A4FD" stroke-width="1.5" stroke-linecap="round" stroke-linejoin="round"/>
</svg>
