<svg width="23" height="23" viewBox="0 0 23 23" fill="none" xmlns="http://www.w3.org/2000/svg">
<path d="M11.5 0.5625C14.4008 0.5625 17.1828 1.71484 19.234 3.76602C21.2852 5.8172 22.4375 8.59919 22.4375 11.5C22.4375 14.4008 21.2852 17.1828 19.234 19.234C17.1828 21.2852 14.4008 22.4375 11.5 22.4375C8.59919 22.4375 5.8172 21.2852 3.76602 19.234C1.71484 17.1828 0.5625 14.4008 0.5625 11.5C0.5625 8.59919 1.71484 5.8172 3.76602 3.76602C5.8172 1.71484 8.59919 0.5625 11.5 0.5625ZM11.5 20.875C13.9864 20.875 16.371 19.8873 18.1291 18.1291C19.8873 16.371 20.875 13.9864 20.875 11.5C20.875 9.0136 19.8873 6.62903 18.1291 4.87087C16.371 3.11272 13.9864 2.125 11.5 2.125C9.0136 2.125 6.62903 3.11272 4.87087 4.87087C3.11272 6.62903 2.125 9.0136 2.125 11.5C2.125 13.9864 3.11272 16.371 4.87087 18.1291C6.62903 19.8873 9.0136 20.875 11.5 20.875ZM12.6719 16.5781C12.6719 16.8889 12.5484 17.187 12.3286 17.4068C12.1089 17.6265 11.8108 17.75 11.5 17.75C11.1892 17.75 10.8911 17.6265 10.6714 17.4068C10.4516 17.187 10.3281 16.8889 10.3281 16.5781C10.3281 16.2673 10.4516 15.9693 10.6714 15.7495C10.8911 15.5297 11.1892 15.4062 11.5 15.4062C11.8108 15.4062 12.1089 15.5297 12.3286 15.7495C12.5484 15.9693 12.6719 16.2673 12.6719 16.5781ZM11.5 5.25C11.7072 5.25 11.9059 5.33231 12.0524 5.47882C12.1989 5.62534 12.2812 5.82405 12.2812 6.03125V13.0625C12.2812 13.2697 12.1989 13.4684 12.0524 13.6149C11.9059 13.7614 11.7072 13.8438 11.5 13.8438C11.2928 13.8438 11.0941 13.7614 10.9476 13.6149C10.8011 13.4684 10.7188 13.2697 10.7188 13.0625V6.03125C10.7188 5.82405 10.8011 5.62534 10.9476 5.47882C11.0941 5.33231 11.2928 5.25 11.5 5.25Z" fill="#FBEDB1"/>
</svg>
