<svg width="26" height="26" viewBox="0 0 26 26" fill="none" xmlns="http://www.w3.org/2000/svg">
<path d="M4.33331 8.66663H14.0833M18.4166 8.66663H21.6666M11.9166 17.3333H21.6666M4.33331 17.3333H7.58331" stroke="white" stroke-width="1.6" stroke-linecap="round" stroke-linejoin="round"/>
<path d="M9.74998 19.5C10.9466 19.5 11.9166 18.5299 11.9166 17.3333C11.9166 16.1367 10.9466 15.1666 9.74998 15.1666C8.55336 15.1666 7.58331 16.1367 7.58331 17.3333C7.58331 18.5299 8.55336 19.5 9.74998 19.5Z" stroke="white" stroke-width="1.6"/>
<path d="M16.25 10.8333C17.4466 10.8333 18.4166 9.86328 18.4166 8.66667C18.4166 7.47005 17.4466 6.5 16.25 6.5C15.0534 6.5 14.0833 7.47005 14.0833 8.66667C14.0833 9.86328 15.0534 10.8333 16.25 10.8333Z" stroke="white" stroke-width="1.6"/>
</svg>
