<svg width="40" height="40" viewBox="0 0 40 40" fill="none" xmlns="http://www.w3.org/2000/svg">
<path d="M9.25331 34.9467C8.67805 34.9305 8.11191 34.7989 7.5885 34.5597C7.0651 34.3204 6.59511 33.9784 6.20645 33.554C5.81779 33.1296 5.51838 32.6314 5.32602 32.089C5.13366 31.5466 5.05225 30.9711 5.08665 30.3967C5.06665 26.8083 5.08665 23.22 5.08665 19.6317C5.08665 19.4107 5.17444 19.1987 5.33073 19.0424C5.48701 18.8861 5.69897 18.7983 5.91998 18.7983C6.14099 18.7983 6.35296 18.8861 6.50924 19.0424C6.66552 19.1987 6.75331 19.4107 6.75331 19.6317C6.75331 23.2983 6.69998 26.965 6.75331 30.6317C6.77998 32.4767 8.16665 33.28 9.81665 33.28H30.5883C31.1127 33.2919 31.6283 33.144 32.0665 32.8558C32.5047 32.5676 32.8448 32.1528 33.0416 31.6667C33.2023 31.0919 33.2587 30.493 33.2083 29.8983V19.6317C33.2083 19.4107 33.2961 19.1987 33.4524 19.0424C33.6087 18.8861 33.8206 18.7983 34.0416 18.7983C34.2627 18.7983 34.4746 18.8861 34.6309 19.0424C34.7872 19.1987 34.875 19.4107 34.875 19.6317C34.875 23.3383 35.0166 27.0733 34.875 30.7767C34.8606 31.3438 34.7337 31.9024 34.5014 32.42C34.2692 32.9376 33.9363 33.4038 33.5222 33.7915C33.1081 34.1793 32.621 34.4808 32.0893 34.6785C31.5576 34.8763 30.9918 34.9663 30.425 34.9433L9.25331 34.9467Z" fill="white"/>
<path d="M20.5617 5.29334C20.4247 5.15324 20.2392 5.07094 20.0434 5.06334C20.02 5.06556 19.9961 5.06223 19.9717 5.05334C19.935 5.04001 19.9267 5.05334 19.9034 5.06334C19.7069 5.07052 19.5208 5.15286 19.3834 5.29334L13.2684 11.4083C13.1166 11.5655 13.0326 11.776 13.0345 11.9945C13.0364 12.213 13.124 12.422 13.2785 12.5765C13.433 12.731 13.642 12.8187 13.8605 12.8206C14.079 12.8225 14.2895 12.7385 14.4467 12.5867L19.14 7.89501V25.7983C19.14 26.0194 19.2278 26.2313 19.3841 26.3876C19.5404 26.5439 19.7523 26.6317 19.9734 26.6317C20.1944 26.6317 20.4063 26.5439 20.5626 26.3876C20.7189 26.2313 20.8067 26.0194 20.8067 25.7983V7.89501L25.5 12.5867C25.6572 12.7385 25.8677 12.8225 26.0862 12.8206C26.3047 12.8187 26.5137 12.731 26.6682 12.5765C26.8227 12.422 26.9103 12.213 26.9122 11.9945C26.9141 11.776 26.8301 11.5655 26.6783 11.4083L20.5617 5.29334Z" fill="white"/>
</svg>
