<svg width="40" height="40" viewBox="0 0 40 40" fill="none" xmlns="http://www.w3.org/2000/svg">
<path d="M15 31.6667L6.31667 34.5617C6.16622 34.6119 6.00597 34.6256 5.84917 34.6017C5.69237 34.5778 5.54351 34.5169 5.41488 34.4241C5.28626 34.3313 5.18155 34.2092 5.10941 34.0679C5.03727 33.9267 4.99977 33.7703 5 33.6117V9.055C5.00004 8.84523 5.06605 8.64079 5.18868 8.4706C5.31132 8.30041 5.48436 8.17309 5.68333 8.10667L15 5M15 31.6667L25 35M15 31.6667V5M15 5L25 8.33333M25 35L34.3167 31.895C34.5159 31.8285 34.6892 31.7009 34.8118 31.5304C34.9345 31.3599 35.0003 31.1551 35 30.945V6.38667C35 6.22819 34.9623 6.072 34.89 5.93095C34.8178 5.78991 34.713 5.66805 34.5844 5.57543C34.4558 5.48281 34.3071 5.42208 34.1504 5.39825C33.9937 5.37441 33.8337 5.38815 33.6833 5.43833L25 8.33333M25 35V8.33333" stroke="white" stroke-width="2" stroke-linecap="round" stroke-linejoin="round"/>
</svg>
